# xmcd
#
# Track frame offsets: 
#        150
#        14382
#        26535
#        40727
#        51387
#        63277
#        72692
#        85415
#        96907
#        109800
#        126382
#        135505
#        146130
#        159197
#
# Disc length: 2286 seconds
#
# Revision: 0
# Processed by: cddbd v1.5.1PL0 Copyright (c) Steve Scherf et al.
# Submitted via: ExactAudioCopy v0.95a5
#
DISCID=c808ec0e
DTITLE=Various Artist - Bet Your Country On It
DYEAR=1994
DGENRE=Country
TTITLE0=Conway Twitty/You've Never Been This Far Before
TTITLE1=Merle Haggard/Olie From Muskogee
TTITLE2=Lee Greenwood/Dixie Road
TTITLE3=Kendalls/You'd Make An Angel Wanna Cheat
TTITLE4=Roger Miller/Walkin' In The Sunshine
TTITLE5=George Jones/The Race Is On
TTITLE6=Johny Lee/Bet Your Heart On Me
TTITLE7=Patsy Cline/Walkin' After Midnight
TTITLE8=Merle Haggard/Sing Me Back Home
TTITLE9=Lee Greenwood/Somebody's Gonna Love You
TTITLE10=Roger Miller/Chug-A-Lug
TTITLE11=Waylon Jennings/Burning Memories
TTITLE12=Donna Fargo/Daddy
TTITLE13=Jerry Wallace/In The Misty Moonlight
EXTD=
EXTT0=
EXTT1=
EXTT2=
EXTT3=
EXTT4=
EXTT5=
EXTT6=
EXTT7=
EXTT8=
EXTT9=
EXTT10=
EXTT11=
EXTT12=
EXTT13=
PLAYORDER=
